<svg xmlns="http://www.w3.org/2000/svg" width="400" height="200" viewBox="0 0 400 200" fill="none">
  <rect width="400" height="200" rx="8" fill="#f1f5f9"/>
  <path d="M120 60h160c8 0 16 4 20 12l20 36c4 8 4 16 0 20v20c0 6-4 12-12 12h-12c-8 0-12-6-12-12v-8H116v8c0 6-4 12-12 12h-12c-8 0-12-6-12-12v-20c-4-4-4-12 0-20l20-36c4-8 12-12 20-12z" fill="#cbd5e1"/>
  <circle cx="100" cy="150" r="16" fill="#94a3b8"/>
  <circle cx="300" cy="150" r="16" fill="#94a3b8"/>
  <rect x="140" y="76" width="16" height="24" rx="4" fill="#94a3b8"/>
  <rect x="164" y="76" width="16" height="24" rx="4" fill="#94a3b8"/>
  <rect x="188" y="76" width="16" height="24" rx="4" fill="#94a3b8"/>
  <rect x="212" y="76" width="16" height="24" rx="4" fill="#94a3b8"/>
  <rect x="236" y="76" width="16" height="24" rx="4" fill="#94a3b8"/>
  <rect x="260" y="76" width="16" height="24" rx="4" fill="#94a3b8"/>
  <text x="200" y="40" text-anchor="middle" fill="#64748b" font-size="12" font-family="system-ui">Bus Image</text>
</svg>
